<svg width="18" height="18" viewBox="0 0 18 18" fill="none" xmlns="http://www.w3.org/2000/svg">
<path d="M16.4852 8.55747C16.2302 4.20747 12.2777 0.854971 7.72522 1.60497C4.59022 2.12247 2.07772 4.66497 1.59022 7.79997C1.30522 9.61497 1.68022 11.3325 2.49772 12.75L1.83022 15.2325C1.68022 15.795 2.19772 16.305 2.75272 16.1475L5.19772 15.4725C6.30772 16.125 7.60522 16.5 8.99272 16.5C13.2227 16.5 16.7327 12.7725 16.4852 8.55747ZM12.6602 11.79C12.4793 12.161 12.1703 12.454 11.7902 12.615C11.5652 12.7125 11.3177 12.7575 11.0552 12.7575C10.6727 12.7575 10.2602 12.6675 9.83272 12.48C9.3771 12.2799 8.94456 12.031 8.54272 11.7375C8.10772 11.4225 7.70272 11.07 7.31272 10.6875C6.92272 10.2975 6.57772 9.88497 6.26272 9.45747C5.95522 9.02997 5.70772 8.60247 5.52772 8.17497C5.34772 7.74747 5.25772 7.33497 5.25772 6.94497C5.25772 6.68997 5.30272 6.44247 5.39272 6.21747C5.48272 5.98497 5.62522 5.77497 5.82772 5.58747C6.06772 5.34747 6.33022 5.23497 6.60772 5.23497C6.71272 5.23497 6.81772 5.25747 6.91522 5.30247C7.01272 5.34747 7.10272 5.41497 7.17022 5.51247L8.04022 6.74247C8.10772 6.83997 8.16022 6.92247 8.19022 7.00497C8.22772 7.08747 8.24272 7.16247 8.24272 7.23747C8.24272 7.32747 8.21272 7.41747 8.16022 7.50747C8.10772 7.59747 8.04022 7.68747 7.95022 7.77747L7.66522 8.07747C7.62022 8.12247 7.60522 8.16747 7.60522 8.22747C7.60522 8.25747 7.61272 8.28747 7.62022 8.31747C7.63522 8.34747 7.64272 8.36997 7.65022 8.39247C7.71772 8.51997 7.83772 8.67747 8.00272 8.87247C8.35386 9.2851 8.7376 9.66883 9.15022 10.02C9.34522 10.185 9.51022 10.2975 9.63772 10.365C9.66022 10.3725 9.68272 10.3875 9.70522 10.395C9.73522 10.41 9.76522 10.41 9.80272 10.41C9.87022 10.41 9.91522 10.3875 9.96022 10.3425L10.2452 10.0575C10.3427 9.95997 10.4327 9.89247 10.5152 9.84747C10.6052 9.79497 10.6877 9.76497 10.7852 9.76497C10.8602 9.76497 10.9352 9.77997 11.0177 9.81747C11.1002 9.85497 11.1902 9.89997 11.2802 9.96747L12.5252 10.8525C12.6227 10.92 12.6902 11.0025 12.7352 11.0925C12.7727 11.19 12.7952 11.28 12.7952 11.385C12.7502 11.5125 12.7202 11.655 12.6602 11.79Z" fill="#0873BA"/>
</svg>
